<?xml version="1.0" standalone="no"?><svg xmlns="http://www.w3.org/2000/svg" viewBox="0 0 1440 320"><path fill="#D1CEE3" fill-opacity="1" d="M0,64L18.5,85.3C36.9,107,74,149,111,170.7C147.7,192,185,192,222,208C258.5,224,295,256,332,229.3C369.2,203,406,117,443,101.3C480,85,517,139,554,170.7C590.8,203,628,213,665,208C701.5,203,738,181,775,154.7C812.3,128,849,96,886,117.3C923.1,139,960,213,997,202.7C1033.8,192,1071,96,1108,58.7C1144.6,21,1182,43,1218,85.3C1255.4,128,1292,192,1329,229.3C1366.2,267,1403,277,1422,282.7L1440,288L1440,320L1421.5,320C1403.1,320,1366,320,1329,320C1292.3,320,1255,320,1218,320C1181.5,320,1145,320,1108,320C1070.8,320,1034,320,997,320C960,320,923,320,886,320C849.2,320,812,320,775,320C738.5,320,702,320,665,320C627.7,320,591,320,554,320C516.9,320,480,320,443,320C406.2,320,369,320,332,320C295.4,320,258,320,222,320C184.6,320,148,320,111,320C73.8,320,37,320,18,320L0,320Z"></path></svg>