<?xml version="1.0" standalone="no"?><svg xmlns="http://www.w3.org/2000/svg" viewBox="0 0 1440 320"><path fill="#D1CEE3" fill-opacity="1" d="M0,256L18.5,245.3C36.9,235,74,213,111,197.3C147.7,181,185,171,222,144C258.5,117,295,75,332,69.3C369.2,64,406,96,443,138.7C480,181,517,235,554,250.7C590.8,267,628,245,665,234.7C701.5,224,738,224,775,213.3C812.3,203,849,181,886,192C923.1,203,960,245,997,234.7C1033.8,224,1071,160,1108,149.3C1144.6,139,1182,181,1218,197.3C1255.4,213,1292,203,1329,202.7C1366.2,203,1403,213,1422,218.7L1440,224L1440,320L1421.5,320C1403.1,320,1366,320,1329,320C1292.3,320,1255,320,1218,320C1181.5,320,1145,320,1108,320C1070.8,320,1034,320,997,320C960,320,923,320,886,320C849.2,320,812,320,775,320C738.5,320,702,320,665,320C627.7,320,591,320,554,320C516.9,320,480,320,443,320C406.2,320,369,320,332,320C295.4,320,258,320,222,320C184.6,320,148,320,111,320C73.8,320,37,320,18,320L0,320Z"></path></svg>