<?xml version="1.0" standalone="no"?><svg xmlns="http://www.w3.org/2000/svg" viewBox="0 0 1440 320"><path fill="#D1CEE3" fill-opacity="1" d="M0,128L17.1,154.7C34.3,181,69,235,103,245.3C137.1,256,171,224,206,213.3C240,203,274,213,309,224C342.9,235,377,245,411,224C445.7,203,480,149,514,154.7C548.6,160,583,224,617,250.7C651.4,277,686,267,720,256C754.3,245,789,235,823,229.3C857.1,224,891,224,926,213.3C960,203,994,181,1029,160C1062.9,139,1097,117,1131,101.3C1165.7,85,1200,75,1234,80C1268.6,85,1303,107,1337,138.7C1371.4,171,1406,213,1423,234.7L1440,256L1440,320L1422.9,320C1405.7,320,1371,320,1337,320C1302.9,320,1269,320,1234,320C1200,320,1166,320,1131,320C1097.1,320,1063,320,1029,320C994.3,320,960,320,926,320C891.4,320,857,320,823,320C788.6,320,754,320,720,320C685.7,320,651,320,617,320C582.9,320,549,320,514,320C480,320,446,320,411,320C377.1,320,343,320,309,320C274.3,320,240,320,206,320C171.4,320,137,320,103,320C68.6,320,34,320,17,320L0,320Z"></path></svg>