<svg width="896" height="424" viewBox="0 0 896 424" fill="none" xmlns="http://www.w3.org/2000/svg">
<path d="M895.614 423.959H1.06553C1.06553 423.959 0.290155 415.787 0.0623185 402.597C-0.0699736 394.912 -0.0185267 385.521 0.481243 375.045C0.525341 374.188 0.565763 373.322 0.613535 372.449C0.874445 367.646 1.22722 362.631 1.70127 357.458C1.74537 356.999 1.78579 356.544 1.83356 356.081C2.34803 350.676 2.99112 345.06 3.7959 339.29C4.45001 334.596 5.19966 329.801 6.07793 324.929C6.13673 324.588 6.20288 324.242 6.26535 323.901C6.71735 321.422 7.20609 318.923 7.72424 316.408C7.92635 315.42 8.13581 314.433 8.34895 313.441C8.76787 311.503 9.2015 309.56 9.66084 307.614C10.7743 302.847 12.0164 298.04 13.3907 293.221C13.5304 292.733 13.6737 292.233 13.8097 291.737C14.4381 289.588 15.0885 287.434 15.772 285.28C16.8083 282.001 17.9144 278.718 19.0903 275.446C19.8253 273.39 20.5933 271.342 21.3834 269.294C46.0706 205.451 98.3296 146.053 207.46 147.248C441.929 149.82 423.934 9.14581 588.06 0.144914C654.904 -3.52453 695.658 62.8586 683.638 157.691C663.305 318.114 892.633 201.818 895.614 423.959Z" fill="#E6F2FF"/>
</svg>
